<svg xmlns="http://www.w3.org/2000/svg" viewBox="0 0 1200 800" role="img" aria-label="Deck railings - cable railing illustration">
  <defs>
    <linearGradient id="bg" x1="0" y1="0" x2="1" y2="1">
      <stop offset="0" stop-color="#f8fafc"/>
      <stop offset="0.55" stop-color="#eef2f7"/>
      <stop offset="1" stop-color="#e6eaf0"/>
    </linearGradient>
    <linearGradient id="accent" x1="0" y1="0" x2="1" y2="0">
      <stop offset="0" stop-color="#4f8cff" stop-opacity="0.25"/>
      <stop offset="1" stop-color="#ff6b35" stop-opacity="0.18"/>
    </linearGradient>
    <filter id="soft" x="-20%" y="-20%" width="140%" height="140%">
      <feGaussianBlur in="SourceGraphic" stdDeviation="6" result="blur"/>
      <feColorMatrix in="blur" type="matrix" values="1 0 0 0 0  0 1 0 0 0  0 0 1 0 0  0 0 0 0.35 0"/>
      <feMerge>
        <feMergeNode/>
        <feMergeNode in="SourceGraphic"/>
      </feMerge>
    </filter>
  </defs>

  <rect width="1200" height="800" fill="url(#bg)"/>
  <path d="M80 640 C 250 520, 380 520, 560 610 C 720 690, 920 710, 1120 600" fill="none" stroke="url(#accent)" stroke-width="80" opacity="0.75" filter="url(#soft)"/>

  <!-- deck surface -->
  <g stroke="#121826" stroke-linecap="round" stroke-linejoin="round" fill="none">
    <path d="M160 560 L1040 560" stroke-width="14"/>
    <path d="M210 604 L990 604" stroke-width="10" opacity="0.35"/>
    <path d="M240 646 L960 646" stroke-width="10" opacity="0.25"/>

    <!-- posts -->
    <path d="M220 560 L220 310" stroke-width="16"/>
    <path d="M520 560 L520 310" stroke-width="16"/>
    <path d="M820 560 L820 310" stroke-width="16"/>
    <path d="M1020 560 L1020 310" stroke-width="16"/>

    <!-- top rail -->
    <path d="M220 320 L1020 320" stroke-width="16"/>

    <!-- cable lines -->
    <g stroke-width="6" opacity="0.7">
      <path d="M230 360 L1010 360"/>
      <path d="M230 400 L1010 400"/>
      <path d="M230 440 L1010 440"/>
      <path d="M230 480 L1010 480"/>
      <path d="M230 520 L1010 520"/>
    </g>
  </g>

  <!-- subtle label plate -->
  <g>
    <rect x="86" y="96" width="420" height="92" rx="18" fill="#ffffff" stroke="#e6eaf0"/>
    <path d="M120 142 h22" stroke="#ff6b35" stroke-width="10" stroke-linecap="round"/>
    <path d="M162 142 h22" stroke="#4f8cff" stroke-width="10" stroke-linecap="round"/>
    <text x="208" y="152" font-family="Inter, Segoe UI, Arial, sans-serif" font-size="34" font-weight="700" fill="#121826">Cable Railings</text>
  </g>
</svg>
